<svg xmlns="http://www.w3.org/2000/svg" viewBox="0 0 33.83 33.83"><defs><style>.cls-1,.cls-3{fill:#fff;}.cls-1{opacity:0.8;}.cls-2{fill:#e73227;}</style></defs><title>location_besondere-orte</title><g id="Ebene_2" data-name="Ebene 2"><g id="Icons"><rect class="cls-1" width="33.83" height="33.83"/><rect class="cls-2" x="3.36" y="3.26" width="27.64" height="27.64"/><path class="cls-3" d="M17.18,7.56a9.52,9.52,0,1,0,9.51,9.52A9.52,9.52,0,0,0,17.18,7.56ZM20.5,21.9a5.92,5.92,0,0,1-.89.32,6,6,0,0,1-3.48,0,4.59,4.59,0,0,1-2.87-2.74c-.1-.26-.17-.53-.25-.8h-1.1a.33.33,0,0,1-.33-.33v-.73a.33.33,0,0,1,.33-.33h.91v-.6h-.91a.33.33,0,0,1-.33-.33v-.73a.33.33,0,0,1,.33-.33h1.15l0-.12a5,5,0,0,1,1.66-2.46A4.84,4.84,0,0,1,17,11.77a6.26,6.26,0,0,1,3.34.4.93.93,0,0,1,.2.1.43.43,0,0,1,.21.62c-.12.29-.24.58-.37.87a.42.42,0,0,1-.54.26l-1.08-.27a4,4,0,0,0-2.28.13,2.35,2.35,0,0,0-1.3,1.36s0,0,0,0h2.24a.33.33,0,0,1,.33.33v.74a.32.32,0,0,1-.33.32H14.83c0,.2,0,.4,0,.6h2.55a.33.33,0,0,1,.33.33v.74a.33.33,0,0,1-.33.33H15.05a2.46,2.46,0,0,0,1.6,1.7,4.19,4.19,0,0,0,2.08.06c.36-.08.71-.19,1.07-.27a.41.41,0,0,1,.55.27c.14.29.26.58.38.88A.43.43,0,0,1,20.5,21.9Z"/><circle class="cls-3" cx="16.92" cy="16.92" r="9.97"/><path class="cls-2" d="M17.1,11.05l1.78,3.61a.21.21,0,0,0,.16.11l4,.58a.21.21,0,0,1,.12.35l-2.88,2.81a.19.19,0,0,0-.06.18l.68,4a.21.21,0,0,1-.3.22L17,21a.17.17,0,0,0-.19,0l-3.56,1.87a.21.21,0,0,1-.3-.22l.68-4a.21.21,0,0,0-.06-.18L10.7,15.7a.2.2,0,0,1,.11-.35l4-.58a.21.21,0,0,0,.16-.11l1.78-3.61A.2.2,0,0,1,17.1,11.05Z"/></g></g></svg>