<svg xmlns="http://www.w3.org/2000/svg" viewBox="0 0 33.83 33.83"><defs><style>.cls-1,.cls-3{fill:#fff;}.cls-1{opacity:0.8;}.cls-2{fill:#35438f;}</style></defs><title>location_hotels</title><g id="Ebene_2" data-name="Ebene 2"><g id="Icons"><rect class="cls-1" width="33.83" height="33.83"/><rect class="cls-2" x="3.36" y="3.26" width="27.64" height="27.64"/><path class="cls-3" d="M17.18,7.56a9.52,9.52,0,1,0,9.51,9.52A9.52,9.52,0,0,0,17.18,7.56ZM20.5,21.9a5.92,5.92,0,0,1-.89.32,6,6,0,0,1-3.48,0,4.59,4.59,0,0,1-2.87-2.74c-.1-.26-.17-.53-.25-.8h-1.1a.33.33,0,0,1-.33-.33v-.73a.33.33,0,0,1,.33-.33h.91v-.6h-.91a.33.33,0,0,1-.33-.33v-.73a.33.33,0,0,1,.33-.33h1.15l0-.12a5,5,0,0,1,1.66-2.46A4.84,4.84,0,0,1,17,11.77a6.26,6.26,0,0,1,3.34.4.93.93,0,0,1,.2.1.43.43,0,0,1,.21.62c-.12.29-.24.58-.37.87a.42.42,0,0,1-.54.26l-1.08-.27a4,4,0,0,0-2.28.13,2.35,2.35,0,0,0-1.3,1.36s0,0,0,0h2.24a.33.33,0,0,1,.33.33v.74a.32.32,0,0,1-.33.32H14.83c0,.2,0,.4,0,.6h2.55a.33.33,0,0,1,.33.33v.74a.33.33,0,0,1-.33.33H15.05a2.46,2.46,0,0,0,1.6,1.7,4.19,4.19,0,0,0,2.08.06c.36-.08.71-.19,1.07-.27a.41.41,0,0,1,.55.27c.14.29.26.58.38.88A.43.43,0,0,1,20.5,21.9Z"/><circle class="cls-3" cx="16.92" cy="16.92" r="10.14"/><path class="cls-2" d="M9.9,19.38v1.24a.42.42,0,0,0,.41.41h.41v1.23a.42.42,0,0,0,.83,0V21H22.29v1.23a.41.41,0,0,0,.82,0V21h.41a.41.41,0,0,0,.41-.41V19.38Zm10.33-5.75H17.74a.41.41,0,0,0-.41.41v1.23h3.31V14A.41.41,0,0,0,20.23,13.63Zm-4.14,0H13.6a.41.41,0,0,0-.41.41v1.23h3.32V14A.41.41,0,0,0,16.09,13.63Zm5-2.47H12.78a2.06,2.06,0,0,0-2.06,2.06v2h1.65V14a1.23,1.23,0,0,1,1.23-1.23h2.49a1.23,1.23,0,0,1,.83.32,1.2,1.2,0,0,1,.82-.32h2.49A1.24,1.24,0,0,1,21.47,14v1.23h1.64v-2A2.06,2.06,0,0,0,21.05,11.16Zm1.65,4.93H11.14A1.24,1.24,0,0,0,9.9,17.33v1.23h14V17.33A1.24,1.24,0,0,0,22.7,16.09Z"/></g></g></svg>