<svg xmlns="http://www.w3.org/2000/svg" xmlns:xlink="http://www.w3.org/1999/xlink" viewBox="0 0 27.1 27.1"><defs><style>.cls-1{fill:#c3c3c2;}.cls-2{fill:url(#Unbenannter_Verlauf_35);}.cls-3{fill:#fff;}.cls-4{fill:url(#Unbenannter_Verlauf_35-2);}</style><linearGradient id="Unbenannter_Verlauf_35" x1="178.54" y1="67" x2="178.54" y2="67" gradientTransform="translate(-160.06 92.28) rotate(-45)" gradientUnits="userSpaceOnUse"><stop offset="0" stop-color="#7d7d7d"/><stop offset="0.01" stop-color="#868686"/><stop offset="0.04" stop-color="#a6a6a6"/><stop offset="0.08" stop-color="#c2c2c2"/><stop offset="0.12" stop-color="#d9d9d9"/><stop offset="0.17" stop-color="#eaeaea"/><stop offset="0.23" stop-color="#f6f6f6"/><stop offset="0.32" stop-color="#fdfdfd"/><stop offset="0.53" stop-color="#fff"/><stop offset="0.87" stop-color="#fcfcfc"/><stop offset="1" stop-color="#f8f8f8"/></linearGradient><linearGradient id="Unbenannter_Verlauf_35-2" x1="46.86" y1="67" x2="46.86" y2="67" gradientTransform="translate(-0.68 93.92) rotate(-135)" xlink:href="#Unbenannter_Verlauf_35"/></defs><title>menu_zoon-adjust</title><g id="Ebene_2" data-name="Ebene 2"><g id="Menü"><rect class="cls-1" width="27.1" height="27.1"/><line class="cls-2" x1="10.02" y1="9.87" x2="17.09" y2="16.94"/><rect class="cls-3" x="12.56" y="8.41" width="2" height="10" transform="translate(-5.51 13.51) rotate(-45)"/><polygon class="cls-3" points="20.68 20.53 19.16 14.88 15.02 19.01 20.68 20.53"/><polygon class="cls-3" points="6.44 6.29 7.95 11.94 12.09 7.8 6.44 6.29"/><line class="cls-4" x1="10.02" y1="16.94" x2="17.09" y2="9.87"/><rect class="cls-3" x="8.56" y="12.41" width="10" height="2" transform="translate(-5.51 13.51) rotate(-45)"/><polygon class="cls-3" points="20.68 6.29 15.02 7.8 19.16 11.94 20.68 6.29"/><polygon class="cls-3" points="6.44 20.53 12.09 19.01 7.95 14.88 6.44 20.53"/></g></g></svg>