<svg xmlns="http://www.w3.org/2000/svg" viewBox="0 0 27.1 27.1"><defs><style>.cls-1{fill:#c3c3c2;}.cls-2{fill:#fff;}</style></defs><title>menu_google-maps</title><g id="Ebene_2" data-name="Ebene 2"><g id="Menü"><rect class="cls-1" width="27.1" height="27.1" transform="translate(27.1 27.1) rotate(180)"/><path class="cls-2" d="M15.63,13.37c.59.88,1.23,1.68,1.78,2.57l-1.6-1.55L14.21,16c.12.13.24.25.37.37l3.75,3.74L20.5,22.3a.1.1,0,0,0,.07,0c.24,0,.48,0,.72,0a1,1,0,0,0,.86-1c0-.2,0-.39,0-.58a.16.16,0,0,0-.05-.09l-1.73-1.74-.07-.05a1.09,1.09,0,0,0,.14-.21,4,4,0,0,0,.17-.49,7.75,7.75,0,0,1,.75-2,12.08,12.08,0,0,1,1-1.54c.2-.25.37-.52.55-.79l.11-.15a.15.15,0,0,1,0,.06c0,2.54,0,5.08,0,7.62a1.77,1.77,0,0,1-.46,1.16,1.94,1.94,0,0,1-1.54.7H6.14A1.91,1.91,0,0,1,4.33,22.1a2,2,0,0,1-.18-.86c0-5,0-9.95,0-14.92A1.94,1.94,0,0,1,5.49,4.43a2,2,0,0,1,.64-.1h8.16a6.22,6.22,0,0,0-1.14,3.58,6.44,6.44,0,0,0,1.11,3.58l0,0-3.63,3.64L5.1,20.67s-.06.07,0,.12c0,.22,0,.44,0,.65a1.06,1.06,0,0,0,1,.9h.58a.19.19,0,0,0,.1-.05l3.05-3.05,5.72-5.71ZM10.55,6.83a.05.05,0,0,1,0,0,2.73,2.73,0,0,0-3.65,0,2.76,2.76,0,0,0-.51,3.48,2.73,2.73,0,0,0,2.33,1.31,2.86,2.86,0,0,0,1.26-.24,2.27,2.27,0,0,0,1.19-1.28,3.09,3.09,0,0,0,.18-1.65c0-.06,0-.07-.09-.07H8.71V9.45h1.48s0,.05,0,.08a1.51,1.51,0,0,1-1.8,1A1.66,1.66,0,1,1,9.42,7.39c.13.06.24.15.36.22Z"/><path class="cls-2" d="M24.87,7.92a6.65,6.65,0,0,1-.11,1,5.72,5.72,0,0,1-.67,1.75,15.86,15.86,0,0,1-1,1.47l-1.26,1.75c-.23.31-.46.61-.68.93a9.48,9.48,0,0,0-1.39,3.05c0,.11,0,.21-.07.32a.16.16,0,0,1-.17.14h-.11c-.12,0-.16,0-.19-.15s-.06-.28-.09-.41A9.24,9.24,0,0,0,18,15.12c-.24-.36-.51-.71-.76-1.07s-.28-.42-.42-.62L15.7,12a11.72,11.72,0,0,1-1.08-1.71,5.16,5.16,0,0,1-.55-1.88,5.25,5.25,0,0,1,.63-3A5,5,0,0,1,15.79,4a5.24,5.24,0,0,1,2.44-1.31,5.06,5.06,0,0,1,1.55-.13,5.39,5.39,0,0,1,5,4.76C24.84,7.51,24.85,7.72,24.87,7.92Zm-6.76,0a1.35,1.35,0,1,0,1.34-1.35A1.34,1.34,0,0,0,18.11,7.93Z"/></g></g></svg>