<svg xmlns="http://www.w3.org/2000/svg" viewBox="0 0 29.39 29.39"><defs><style>.cls-1,.cls-3{fill:#fff;}.cls-1{opacity:0.8;}.cls-2{fill:#f3cf57;}</style></defs><title>location_essen</title><g id="Ebene_2" data-name="Ebene 2"><g id="Icons"><rect class="cls-1" width="29.39" height="29.39"/><rect class="cls-2" x="2.69" y="2.69" width="24" height="24"/><path class="cls-3" d="M22.37,20.79h0l-4.46-4.52c-.25-.07-1.69-.71-1.71-1.9A3.68,3.68,0,0,1,19,13h0a2.5,2.5,0,0,0,1.69-.61l.11-.1,3.31-4.17-.4-.4L19.71,12l-.47-.48L23.4,7.33,23.05,7l-4.19,4.19-.39-.4,4.18-4.18-.38-.39-4.19,4.19-.47-.47,4.33-4-.37-.37-4,3.11-.2.17a2.44,2.44,0,0,0-.7,2A3.74,3.74,0,0,1,16,12.87C8.54,5.6,5.73,6.38,5.73,6.38l-.22.23,8.08,8.1L7.29,21h0a.94.94,0,0,0,0,1.35.93.93,0,0,0,1.34,0h0s5.22-5.23,6.3-6.3c.56.57.94.94,1,1,.45.47,5.06,5.07,5.06,5.07h0a1,1,0,0,0,1.36,0,.94.94,0,0,0,0-1.35Z"/></g></g></svg>