<svg xmlns="http://www.w3.org/2000/svg" viewBox="0 0 33.83 33.83"><defs><style>.cls-1{fill:#fff;}.cls-2{fill:#d30b51;}</style></defs><title>location_trinken</title><g id="Ebene_2" data-name="Ebene 2"><g id="Icons"><rect class="cls-1" width="33.83" height="33.83"/><rect class="cls-2" x="3.36" y="3.26" width="27.64" height="27.64"/><path class="cls-1" d="M17.18,7.56a9.52,9.52,0,1,0,9.51,9.52A9.52,9.52,0,0,0,17.18,7.56Z"/><path class="cls-2" d="M17.9,17.44v4.62h1.93a.4.4,0,0,1,.27.11.41.41,0,0,1,.11.28.38.38,0,0,1-.38.38H14.44a.37.37,0,0,1-.27-.11.37.37,0,0,1-.12-.27.38.38,0,0,1,.12-.28.37.37,0,0,1,.27-.11h1.92V17.44l-3.8-3.8a.73.73,0,0,1-.26-.47.27.27,0,0,1,.11-.22.7.7,0,0,1,.23-.11l.26,0h5.85l-1.9,1.9a.35.35,0,0,0,0,.51l0,0a.37.37,0,0,0,.52,0l2.44-2.44h1.54l.25,0a.7.7,0,0,1,.23.11.24.24,0,0,1,.11.22.68.68,0,0,1-.26.47Z"/><path class="cls-2" d="M21.23,11.42l-1.4,1.4H18.75l1.93-1.94a.37.37,0,0,1,.52,0l0,0A.36.36,0,0,1,21.23,11.42Z"/></g></g></svg>